PathFileType	4	(X/Y/Z)	C:\Users\Alexander Denk\OneDrive - Universitaet Duisburg-Essen\Dokumente\GitHub\artisynth_dissertation_models\src\artisynth\models\gait_model\Models\EP010DR1980_BE_3Gang01\Input\EP010DR1980_BE_3Gang01_positions.trc
DataRate	CameraRate	NumFrames	NumMarkers	Units	OrigDataRate	OrigDataStartFrame	OrigNumFrames
100	100	4	41	m	100	77	103
Frame#	Time	LFHD			RFHD			LBHD			RBHD			C7			T10			CLAV			STRN			RBAK			LSHO			LUPA			LELB			LFRM			LWRA			LWRB			LFIN			RSHO			RUPA			RELB			RFRM			RWRA			RWRB			RFIN			LASI			RASI			LPSI			RPSI			LTHI			LKNE			LTIB			LANK			LTOE			LBTO			LHEE			RKNE			RTIB			RANK			RTOE			RBTO			RHEE			RTHI			
		X1	Y1	Z1	X2	Y2	Z2	X3	Y3	Z3	X4	Y4	Z4	X5	Y5	Z5	X6	Y6	Z6	X7	Y7	Z7	X8	Y8	Z8	X9	Y9	Z9	X10	Y10	Z10	X11	Y11	Z11	X12	Y12	Z12	X13	Y13	Z13	X14	Y14	Z14	X15	Y15	Z15	X16	Y16	Z16	X17	Y17	Z17	X18	Y18	Z18	X19	Y19	Z19	X20	Y20	Z20	X21	Y21	Z21	X22	Y22	Z22	X23	Y23	Z23	X24	Y24	Z24	X25	Y25	Z25	X26	Y26	Z26	X27	Y27	Z27	X28	Y28	Z28	X29	Y29	Z29	X30	Y30	Z30	X31	Y31	Z31	X32	Y32	Z32	X33	Y33	Z33	X34	Y34	Z34	X35	Y35	Z35	X36	Y36	Z36	X37	Y37	Z37	X38	Y38	Z38	X39	Y39	Z39	X40	Y40	Z40	X41	Y41	Z41	X42	Y42	Z42	X43	Y43	Z43	

78	0.77	0.25235888671875	1.74485717773438	0.0282540066288968	0.381087310791016	1.75082312011719	0.0255633328007718	0.244893646240234	1.67075939941406	0.165594094519522	0.395126831054687	1.67549499511719	0.159845986609366	0.32517578125	1.569912109375	0.215425149207022	0.299136108398438	1.29284765625	0.290842812781241	0.307848388671875	1.4355810546875	0.0740448391484281	0.293003173828125	1.30374353027344	0.0554143459843656	0.469608001708984	1.46170849609375	0.238818948035147	0.12355046081543	1.53260595703125	0.159928200964834	0.0715466461181641	1.39039367675781	0.158229775671866	0.027871395111084	1.19736267089844	0.147229043249991	0.0301832866668701	0.961114807128906	0.0762461941288969	0.0766375579833984	0.930234436035156	0.0592508328007718	0.0244240303039551	0.920331420898438	0.115451821570303	0.0359317512512207	0.855197387695313	0.0173999416874906	0.509531707763672	1.51484301757813	0.138741555457022	0.568428649902344	1.24648388671875	0.133898965124991	0.579181030273437	1.15232507324219	0.123077737097647	0.548593200683594	0.934914428710938	0.0604138577031156	0.492173522949219	0.902315734863281	0.0277093899296781	0.540359985351562	0.881424011230469	0.085517007117178	0.5253466796875	0.807843139648438	-0.0092581393671971	0.161783721923828	1.0663515625	0.102290871863272	0.425629547119141	1.06740942382813	0.0774987576054593	0.267278991699219	1.1106748046875	0.267952004675772	0.335057922363281	1.10777941894531	0.260629189734366	0.119647331237793	0.701882873535156	0.0378151638554594	0.130252746582031	0.549867370605469	0.00980204129686557	0.131614364624023	0.4113955078125	0.0689007351445218	0.189365158081055	0.166032958984375	0.241630654578116	0.198708160400391	0.0699774017333985	0.12354886746874	0.216131881713867	0.0453551826477051	0.0710717556523343	0.229286758422852	0.163889007568359	0.314001504187491	0.416826568603516	0.514087768554688	0.172985879187491	0.4172587890625	0.353076446533203	0.198228432898428	0.354031768798828	0.0678735122680665	0.213458718542959	0.358667388916016	0.0414032630920411	0.0527972195195218	0.344188720703125	0.0472970619201661	-0.0033197848750095	0.302715667724609	0.034388355255127	0.267215310339834	0.442031158447266	0.675319946289063	0.138463784460928
79	0.78	0.25258088684082	1.74416003417969	0.0285745122572956	0.381243316650391	1.75017932128906	0.0257529790541706	0.245467544555664	1.67023034667969	0.165995532765108	0.395659210205078	1.67507727050781	0.159984607472139	0.326109069824219	1.56949780273438	0.215800403370577	0.300650939941406	1.292544921875	0.291755420460421	0.308402160644531	1.43494689941406	0.074705920948702	0.293695495605469	1.3030537109375	0.0563433721205771	0.470819702148437	1.46151171875	0.238748889698702	0.124368980407715	1.53203454589844	0.161102588429171	0.0721513290405273	1.38987109375	0.160101001515108	0.0282794361114502	1.19682922363281	0.150113940968233	0.0301495475769043	0.960305908203125	0.0799953496596395	0.0764491271972656	0.929388488769531	0.0627427861830769	0.0246310863494873	0.919685974121094	0.119368274464327	0.0353271751403809	0.854255249023438	0.0213937261244832	0.510286468505859	1.51467639160156	0.138488635792452	0.56943408203125	1.24629479980469	0.132652576222139	0.580195068359375	1.15218029785156	0.121333850636202	0.548897094726563	0.935156066894531	0.0576287114760456	0.492202911376953	0.902880615234375	0.0250995366713582	0.540702575683594	0.881515502929688	0.0824742925307331	0.524952697753906	0.808601501464844	-0.0127301752427045	0.16319319152832	1.06627758789062	0.103868274464327	0.427069061279297	1.06637280273438	0.0785587651869832	0.268727966308594	1.11033569335938	0.26930687309714	0.336438812255859	1.10734875488281	0.261694995655733	0.12096435546875	0.703439819335938	0.0357184941908895	0.13176252746582	0.551260131835938	0.00532536674948303	0.133317626953125	0.408711639404297	0.0578091313979205	0.191237854003906	0.154027282714844	0.216384265675264	0.199565490722656	0.0655282440185547	0.0926461064955769	0.216841598510742	0.0444284706115723	0.0387534063002644	0.231451019287109	0.147394927978516	0.288371814503389	0.416687377929688	0.51433154296875	0.182479053272921	0.417026031494141	0.353707397460938	0.209659839405733	0.353652221679688	0.0682781143188477	0.226809314503389	0.35884814453125	0.0413157424926758	0.0661979253432331	0.344524749755859	0.0468402862548829	0.0100647466322956	0.302246246337891	0.0348283843994141	0.280296252979952	0.442055023193359	0.675084167480469	0.144901904835421
80	0.79	0.252765579223633	1.74319921875	0.0289107039208507	0.381378845214844	1.74927600097656	0.0259629500146008	0.245981872558594	1.669419921875	0.166403623842726	0.396137298583984	1.67436669921875	0.160148435854445	0.326953033447266	1.56881115722656	0.216180174135695	0.302050354003906	1.29196215820313	0.292654722475538	0.308926330566406	1.434029296875	0.0753473494286634	0.294379455566406	1.30207275390625	0.0572462141747572	0.471929779052734	1.46103820800781	0.238726499819288	0.125122428894043	1.53116027832031	0.162209471010695	0.0727201385498047	1.38903771972656	0.161867002748976	0.0286651382446289	1.19598852539063	0.152891050600538	0.0301036243438721	0.959175659179688	0.0836857283349134	0.0762530822753906	0.928210632324219	0.0662045881981945	0.024806058883667	0.91873095703125	0.123233885073194	0.0347360801696777	0.85295068359375	0.0253833601708506	0.510995239257813	1.51425463867187	0.138283628725538	0.570380432128906	1.24584240722656	0.131471006655226	0.581153259277344	1.15177587890625	0.119638487123976	0.549152954101563	0.935153564453125	0.0548648665185072	0.492193481445312	0.903210266113281	0.0224873640771008	0.540986877441406	0.881361572265625	0.0794428694481945	0.524520751953125	0.809129089355469	-0.0161959855322742	0.164509429931641	1.06589294433594	0.105394590639601	0.428383880615234	1.06507336425781	0.0795743391747571	0.270113708496094	1.10968566894531	0.270612242006788	0.337742523193359	1.10661511230469	0.262732786440382	0.122306495666504	0.704545837402344	0.0340756209130382	0.133404724121094	0.55206884765625	0.00175225665522571	0.135043319702148	0.405681854248047	0.0471665632958507	0.192992279052734	0.142015777587891	0.190162840151319	0.200320831298828	0.0614343490600587	0.061140501284132	0.217494369506836	0.0439846420288087	0.00603240802241323	0.233504150390625	0.130859313964844	0.261461118959913	0.416521270751953	0.514492858886719	0.191737180971632	0.416749328613281	0.354306396484375	0.220976988100538	0.353180084228516	0.0686386718750001	0.240139707827101	0.359012786865234	0.0412174377441407	0.0795737898583507	0.344855255126953	0.0462629699707032	0.0233734724755383	0.301646789550781	0.0352211380004883	0.293335020327101	0.442053009033203	0.67470263671875	0.151153013491163
81	0.8	0.252913314819336	1.74198645019531	0.0292593467562807	0.381494964599609	1.74812487792969	0.0261894004672181	0.246435623168945	1.66833654785156	0.166814339432062	0.396560485839844	1.67337219238281	0.160334236893	0.327706298828125	1.56786083984375	0.216558357986749	0.303332489013672	1.2911064453125	0.293530342850031	0.309418212890625	1.43283898925781	0.0759607017367494	0.295049255371094	1.30081213378906	0.0581128623812806	0.472936218261719	1.46029626464844	0.238744271072687	0.125807052612305	1.52999267578125	0.163242806228937	0.0732529602050781	1.38790148925781	0.163518685135187	0.0290316600799561	1.19484765625	0.155543526443781	0.0300515174865723	0.957731506347656	0.0873010948031557	0.0760581893920898	0.926706420898438	0.0696263511508119	0.0249502944946289	0.917474182128906	0.127032051834406	0.0341769485473633	0.851286376953125	0.0293563926547182	0.511656188964844	1.51358740234375	0.138118599685968	0.571265441894531	1.24513647460937	0.130350533279718	0.582054138183594	1.15112170410156	0.117992623123468	0.549366760253906	0.934913391113281	0.052131294998468	0.492152801513672	0.903307189941406	0.0198822715609681	0.541221069335937	0.880971069335938	0.0764336631625306	0.524064147949219	0.809428833007813	-0.019641654220282	0.165725723266602	1.06520141601563	0.106856636795343	0.429568176269531	1.06352014160156	0.0805349815219059	0.271432556152344	1.10873217773438	0.271856941971125	0.338966735839844	1.10558752441406	0.263730294021906	0.123673202514648	0.705165649414063	0.0328919151156557	0.135203338623047	0.552257690429688	-0.00088603898590689	0.136787506103516	0.402387847900391	0.0370269248812807	0.194590194702148	0.130260025024414	0.163016854080499	0.200907455444336	0.0579048309326173	0.029153755935968	0.218008697509766	0.0441848144531251	-0.0269607460171568	0.235419799804687	0.114608337402344	0.233294380935968	0.416333648681641	0.514556518554688	0.200747505935968	0.416435028076172	0.354848358154297	0.232125069412531	0.352616790771484	0.0689610671997071	0.253441780838312	0.359149658203125	0.0410989036560059	0.0929208457797182	0.345159118652344	0.0455551757812501	0.0366057823031556	0.300915405273438	0.0355991592407227	0.306374092850031	0.442040069580078	0.674162963867188	0.157220833572687
